<svg xmlns="http://www.w3.org/2000/svg" width="18.255" height="32.277" viewBox="0 0 18.255 32.277">
  <path id="Icon_material-attach-money" data-name="Icon material-attach-money" d="M19.307,18.666c-4.071-1.058-5.38-2.152-5.38-3.855,0-1.955,1.811-3.317,4.842-3.317,3.192,0,4.375,1.524,4.483,3.766h3.963a7.148,7.148,0,0,0-5.756-6.832V4.5h-5.38V8.373C12.6,9.126,9.8,11.386,9.8,14.847c0,4.142,3.425,6.2,8.428,7.406,4.483,1.076,5.38,2.654,5.38,4.322,0,1.237-.879,3.21-4.842,3.21-3.694,0-5.146-1.65-5.344-3.766H9.48c.215,3.927,3.156,6.133,6.6,6.868v3.891h5.38V32.922c3.5-.663,6.276-2.69,6.276-6.366C27.735,21.464,23.377,19.724,19.307,18.666Z" transform="translate(-9.48 -4.5)" fill="#fff"/>
</svg>
